
<svg width="375px" height="161px" viewBox="0 0 375 161" version="1.1" xmlns="http://www.w3.org/2000/svg" xmlns:xlink="http://www.w3.org/1999/xlink">
    <g id="Page-1" stroke="none" stroke-width="1" fill="none" fill-rule="evenodd">
        <g id="Artboard" transform="translate(-460.000000, -143.000000)">
            <g id="Group-Copy-2" transform="translate(651.119946, 195.649683) rotate(12.000000) translate(-651.119946, -195.649683) translate(458.119946, 69.149683)">
                <g id="Group-4" opacity="0.0987955729" transform="translate(15.325411, 152.358518)">
                    <path d="M3.38280996,0.663362116 L58.5847279,0.663362116 C62.7219445,0.663362116 66.567377,2.79452867 68.7603143,6.30274574 L115.334518,80.8112221 C118.847389,86.4310433 117.139369,93.8345535 111.519548,97.3474249 C109.612229,98.5396635 107.40822,99.1718385 105.158932,99.1718385 L49.9570136,99.1718385 C45.819797,99.1718385 41.9743644,97.0406719 39.7814271,93.5324549 L-6.79277648,19.0239785 C-10.3056479,13.4041573 -8.59762762,6.0006471 -2.97780641,2.48777568 C-1.07048705,1.29553709 1.13352119,0.663362116 3.38280996,0.663362116 Z" id="Rectangle-Copy-19" fill-opacity="0.972486413" fill="#FF8800" opacity="0.767531622"></path>
                    <path d="M42.3052246,46.1747552 L44.3591708,49.0580161 L45.7926248,52.1131703 C45.8397499,52.2251869 45.7736844,52.3139057 45.639631,52.3186245 C45.5055777,52.3233433 45.3340031,52.2429895 45.268598,52.1316163 L43.1405037,49.1009139 L41.7811978,46.1932013 C41.7236413,46.0951929 41.7870906,46.0020191 41.9272373,45.9970859 C42.0612907,45.9923671 42.2293881,46.0773903 42.3052246,46.1747552 Z M42.4162094,44.0974088 C42.245596,44.1034145 42.1873791,44.2054981 42.2423528,44.3308795 L44.7003976,49.0460048 L46.7919319,52.0779941 C46.8834656,52.2020886 47.0567955,52.2960216 47.2274089,52.2900159 C47.3797423,52.2846537 47.4562392,52.1819266 47.3829855,52.0571887 L45.9495315,49.0020346 L42.8334064,44.3100741 C42.7601526,44.1853362 42.5685428,44.0920466 42.4162094,44.0974088 Z M43.3395048,42.9690772 C43.1506114,42.9757264 43.0741145,43.0784535 43.1369368,43.2171996 L46.2698955,49.0180397 L48.3117887,52.0290413 C48.411171,52.1665005 48.6027809,52.2597901 48.7916743,52.253141 C48.9622877,52.2471353 49.0570646,52.1437647 48.9759623,52.005662 L47.5251226,48.973855 L43.8011104,43.1938203 C43.7200081,43.0557177 43.5101182,42.9630715 43.3395048,42.9690772 Z M36.6597277,47.5966274 C36.574421,47.5996303 36.5544526,47.6503504 36.5727994,47.7133628 L37.2177813,49.3093971 L38.4198396,50.8585398 C38.4747465,50.9202653 38.5522714,50.9675536 38.6375781,50.9645507 C38.7228848,50.9615479 38.7428532,50.9108278 38.7245064,50.8478154 L38.1500617,49.2765803 L36.8774662,47.7026383 C36.8225594,47.6409128 36.7450344,47.5936246 36.6597277,47.5966274 Z M37.4378779,46.6871148 L38.5522219,49.262424 L40.4098859,51.7479097 C40.4543614,51.8236434 40.5501663,51.8702882 40.635473,51.8672853 C40.7207797,51.8642825 40.7590282,51.8129189 40.7406813,51.7499065 L39.7038623,49.2218856 L37.7608247,46.6757469 C37.7059179,46.6140214 37.6101129,46.5673766 37.5248062,46.5703795 C37.4394995,46.5733823 37.4012511,46.6247459 37.4378779,46.6871148 Z M38.6534276,46.162343 L40.0816491,49.2085873 L42.156525,52.1274876 C42.2192805,52.2025779 42.341214,52.261944 42.4387074,52.2585122 C42.5422941,52.2548659 42.5909739,52.1894941 42.5464985,52.1137603 L41.2454763,49.1676199 L39.043401,46.1486157 C38.9936932,46.0639721 38.8717596,46.004606 38.7681729,46.0082523 C38.6645862,46.0118987 38.6159064,46.0772705 38.6534276,46.162343 Z M40.2522304,45.8559783 C40.136457,45.8600536 40.0694971,45.9260689 40.1270536,46.0240772 L41.6049831,49.1549651 L43.732183,52.1629639 C43.7897395,52.2609723 43.9299531,52.3196949 44.0457264,52.3156196 C44.1614998,52.3115443 44.2284597,52.2455291 44.1891832,52.1468773 L42.8053702,49.1127108 L40.5840538,46.0079906 C40.5082173,45.9106257 40.3680037,45.851903 40.2522304,45.8559783 Z M52.0601724,40.3976904 C51.9722161,40.3644104 51.8529321,40.3413271 51.7676254,40.34433 C51.633572,40.3490487 51.532635,40.3889779 51.4761065,40.4409849 C51.4048086,40.520794 51.3970937,40.6347409 51.4503121,40.7465431 L51.4712417,40.7821825 L55.8929945,48.6611131 L56.8468475,50.1053174 L57.779771,51.5138824 C57.9210126,51.7226204 58.2606846,51.8879974 58.5470714,51.8779164 C58.8334582,51.8678354 58.9690663,51.6857283 58.8461047,51.4763468 L57.4041417,48.6079199 L52.5227392,40.708793 C52.4198797,40.5760032 52.2491326,40.4546971 52.0601724,40.3976904 Z M50.833531,41.1365625 C50.7272947,41.1039259 50.6262907,41.0801992 50.5287974,41.083631 C50.431304,41.0870628 50.3556012,41.1170097 50.2973174,41.1554375 C50.1998909,41.2225252 50.1799893,41.3369012 50.253243,41.4616391 L50.2794385,41.5380162 L54.3156814,48.7075414 C54.3156814,48.7075414 54.3235301,48.7209062 56.2208048,51.623323 L56.2286534,51.6366878 C56.2731289,51.7124215 56.3515482,51.7824134 56.4552017,51.842423 C56.6084963,51.9234203 56.7739441,51.9721606 56.9262775,51.9667984 C57.0603309,51.9620796 57.1534194,51.9087857 57.2020992,51.8434139 C57.2690591,51.7773986 57.2680979,51.6910391 57.2079252,51.5885759 L57.0509195,51.2894524 L55.7067173,48.6722172 L51.2464568,41.4266774 C51.154923,41.3025829 51.0042112,41.1942127 50.833531,41.1365625 Z M44.6342009,42.3778612 C44.4453075,42.3845103 44.3540412,42.5150394 44.4403759,42.6620519 L47.8506522,48.935114 L49.8768482,51.9193861 C49.981463,52.0657552 50.1992015,52.1717661 50.3820015,52.1653314 C50.5830816,52.1582533 50.6700099,52.041518 50.6019552,51.893862 L49.1485327,48.8894279 L45.1654828,42.6365278 C45.0669614,42.4899442 44.8413743,42.3705685 44.6342009,42.3778612 Z M69.2307729,44.3675746 C68.5726926,44.3907394 68.0026355,44.5108401 67.5258006,44.7049586 C65.2835546,41.564599 60.2095036,39.2150671 55.7918352,39.3705715 C54.7072214,39.4087505 53.7455024,39.5926551 52.9728105,39.8972223 C52.6586735,40.0083145 52.6126433,40.1099691 52.7382211,40.3238055 L59.270883,51.4477533 C59.4016932,51.6704996 59.7335166,51.8225118 60.0356006,51.8391604 L73.3373526,51.3709313 C75.9757669,51.2780576 77.211043,49.6431193 76.0782266,47.7141367 C74.9436549,45.7715749 71.8691873,44.274701 69.2307729,44.3675746 Z M49.5742746,42.3176432 C49.3183545,42.3266517 49.2036092,42.4807424 49.3030583,42.6818575 L52.6783294,48.7788181 L54.5956394,51.6941708 C54.7238,51.8806342 55.0112148,52.0205686 55.2671349,52.0115601 C55.523055,52.0025515 55.6378004,51.8484609 55.5279198,51.661354 L54.0493299,48.7305582 L50.2353387,42.6490407 C50.0993295,42.4492125 49.8301947,42.3086347 49.5742746,42.3176432 Z M46.1041827,42.0851251 C45.9031026,42.0922032 45.7953116,42.236955 45.8894949,42.3973323 L49.4531995,48.8787035 L51.4410802,51.8506833 C51.5535436,52.0104171 51.7974107,52.1291493 51.9984908,52.1220712 C52.2178509,52.1143496 52.3152105,51.983606 52.2393072,51.8225852 L50.7571734,48.8328029 L46.6877219,42.3692343 C46.5752585,42.2095005 46.3235428,42.0774035 46.1041827,42.0851251 Z M47.8200543,42.179324 C47.5824142,42.1876891 47.4807165,42.3322264 47.5801322,42.5015136 L51.0496535,48.8225074 L53.0244532,51.7722126 C53.1447651,51.9453112 53.3938647,52.0729532 53.6254114,52.0648027 C53.8569582,52.0566521 53.9647493,51.9119002 53.8653335,51.7426131 L52.384094,48.7755343 L48.4210126,42.4719141 C48.3189806,42.298172 48.0576944,42.1709589 47.8200543,42.179324 Z" id="Shape" fill="#FFFFFF" fill-rule="nonzero"></path>
                </g>
                <g id="Group-2-Copy" opacity="0.280808222" transform="translate(61.132392, 132.936130)">
                    <path d="M3.99919934,0.266338114 L59.2011173,0.266338114 C63.3383338,0.266338114 67.1837664,2.39750467 69.3767037,5.90572174 L115.950907,80.4141981 C119.463779,86.0340193 117.755758,93.4375295 112.135937,96.9504009 C110.228618,98.1426395 108.02461,98.7748145 105.775321,98.7748145 L50.573403,98.7748145 C46.4361864,98.7748145 42.5907538,96.6436479 40.3978165,93.1354309 L-6.1763871,18.6269545 C-9.68925852,13.0071333 -7.98123824,5.6036231 -2.36141703,2.09075168 C-0.454097669,0.898513092 1.74991057,0.266338114 3.99919934,0.266338114 Z" id="Rectangle-Copy-20" fill-opacity="0.972486413" fill="#55ACEE" opacity="0.854050409"></path>
                    <path d="M66.1462737,37.6657942 C66.3533402,37.8953649 66.5385351,38.1288378 66.7236893,38.3622595 C72.371137,45.4819274 71.759685,54.9365177 58.7488877,57.2230946 C54.7405035,57.9275463 50.3159058,57.6981992 45.9669396,56.7147511 C46.5761075,56.6646515 47.1368742,56.5851054 47.7283017,56.4811652 C51.0356973,55.8999085 53.4058466,54.5144912 54.686499,52.6365793 C51.5364851,53.1331603 47.6999379,52.0405933 45.1089427,50.0641651 C45.5867048,50.0371593 46.051209,49.9935365 46.5112306,49.9126902 C47.1464151,49.8010599 47.7287425,49.6226967 48.2275661,49.4021088 C44.5890284,49.4715694 40.4382962,47.7313038 38.3618252,45.1135222 L38.3089414,45.0468523 C39.5681867,45.2815058 40.8618455,45.3391194 42.0490749,45.168423 C39.3763343,44.536227 36.8185263,43.1049534 35.3372112,41.2374776 C34.5436699,40.2370699 34.1666365,39.2584326 34.1451269,38.3502947 C40.2201013,41.0062872 47.1479881,42.2204718 53.2032961,41.4223043 C52.7763778,41.0413739 52.3800261,40.6361244 52.0493703,40.2192707 C49.6951272,37.2513053 50.9315338,34.2793123 54.8522691,33.5902644 C56.8892957,33.232268 59.2449899,33.5591937 61.3705731,34.3825192 C62.7843362,33.8680965 63.9604662,33.1484222 64.8292036,32.2928314 C65.2954127,33.6357916 65.0115965,34.8825559 64.0730855,35.8073674 C65.4043035,35.4404908 66.5461141,34.8977814 67.485868,34.2577186 C67.3686951,35.4941434 66.9177759,36.6562415 66.1462737,37.6657942 Z" id="Path" fill="#FFFFFF"></path>
                </g>
                <path d="M117.696938,113.553827 L172.898856,113.553827 C177.036072,113.553827 180.881505,115.684994 183.074442,119.193211 L229.648646,193.701687 C233.161517,199.321509 231.453497,206.725019 225.833676,210.23789 C223.926356,211.430129 221.722348,212.062304 219.473059,212.062304 L164.271142,212.062304 C160.133925,212.062304 156.288492,209.931137 154.095555,206.42292 L107.521351,131.914444 C104.00848,126.294623 105.7165,118.891112 111.336322,115.378241 C113.243641,114.186002 115.447649,113.553827 117.696938,113.553827 Z" id="Rectangle-Copy-12" fill-opacity="0.972486413" fill="#25FF00" opacity="0.345238095"></path>
                <path d="M161.930223,151.380371 C154.693395,151.380371 151.590186,155.6697 155.003168,160.955112 C158.416151,166.240523 167.058911,170.529853 174.29574,170.529853 C181.532568,170.529853 184.635777,166.240523 181.222794,160.955112 C177.809812,155.6697 169.167051,151.380371 161.930223,151.380371 Z M176.350573,165.468367 C176.128552,165.468367 175.9587,165.418176 175.695198,165.329378 C171.459214,163.877724 167.581533,163.815952 164.157795,164.383487 C163.976563,164.422094 163.746855,164.483867 163.593555,164.483867 C163.080792,164.483867 162.566368,164.186587 162.364431,163.873863 C162.107647,163.476203 162.307947,163.287024 162.664524,163.225252 C166.542693,162.52645 171.007143,162.588223 175.846032,164.236777 C176.26572,164.387347 176.543281,164.522475 176.770148,164.873806 C176.997015,165.225137 176.778756,165.468367 176.350573,165.468367 Z M176.137125,162.935693 C175.862242,162.935693 175.619884,162.846895 175.382213,162.77354 C171.155901,161.345051 165.857684,160.769794 162.036348,161.63847 C161.815019,161.68866 161.709987,161.738851 161.472108,161.738851 C160.906483,161.738851 160.229687,161.402962 159.962931,160.989859 C159.696174,160.576755 159.794051,160.302639 160.266233,160.190677 C161.541343,159.889536 162.898031,159.66561 165.097097,159.66561 C168.52785,159.66561 172.243688,160.287196 175.588034,161.422266 C176.135883,161.607584 176.459611,161.846952 176.676506,162.182841 C176.940469,162.599805 176.713322,162.935693 176.137125,162.935693 Z M175.876149,159.993777 C175.601266,159.993777 175.399698,159.943587 175.096999,159.843206 C170.273668,158.202374 163.290026,157.808574 159.507586,158.696554 C159.342213,158.735162 159.144222,158.796934 158.890483,158.796934 C158.192703,158.796934 157.402011,158.399274 157.070436,157.885789 C156.731382,157.360723 156.983459,157.063443 157.394399,156.963062 C158.998363,156.565402 160.958972,156.376223 163.226758,156.376223 C167.085695,156.376223 171.508593,156.963062 175.276321,158.221678 C175.800832,158.395413 176.224998,158.634781 176.521671,159.094214 C176.860726,159.619281 176.521068,159.993777 175.876149,159.993777 Z" id="Shape" fill="#FFFFFF" fill-rule="nonzero"></path>
                <g id="Group-5" opacity="0.749186198" transform="translate(166.734322, 93.566528)">
                    <path d="M3.42115475,0.627614706 L58.6230727,0.627614706 C62.7602892,0.627614706 66.6057218,2.75878126 68.7986591,6.26699833 L115.372863,80.7754747 C118.885734,86.3952959 117.177714,93.7988061 111.557893,97.3116775 C109.650573,98.5039161 107.446565,99.1360911 105.197276,99.1360911 L49.9953584,99.1360911 C45.8581418,99.1360911 42.0127092,97.0049245 39.8197719,93.4967075 L-6.75443168,18.9882311 C-10.2673031,13.3684099 -8.55928283,5.96489969 -2.93946162,2.45202827 C-1.03214226,1.25978968 1.17186598,0.627614706 3.42115475,0.627614706 Z" id="Rectangle-Copy-10" fill-opacity="0.701879529" fill="#6600FF" opacity="0.792480469"></path>
                    <path d="M38.6080823,38.0973188 L38.9156426,41.3843616 L47.5216959,54.8189201 L53.9135727,54.8189201 L55.4688506,57.2468008 L59.065028,57.2468008 L60.9028213,54.8189201 L66.0999548,54.8189201 L69.8855501,49.8178277 L62.3775011,38.0973188 L38.6080823,38.0973188 Z M66.9397185,48.9586656 L64.7751345,51.8182646 L58.3832576,51.8182646 L56.5454644,54.2461454 L54.9901866,51.8182646 L49.5959204,51.8182646 L41.9044143,39.8113684 L61.0800449,39.8113684 L66.9397185,48.9586656 Z M59.1892775,43.0984112 L62.3901926,48.0952292 L59.9947322,48.0952292 L56.7938171,43.0984112 L59.1892775,43.0984112 Z M52.7974006,43.0984112 L55.9983158,48.0952292 L53.6028554,48.0952292 L50.4019402,43.0984112 L52.7974006,43.0984112 Z" id="Shape" fill="#FFFFFF" fill-rule="nonzero"></path>
                </g>
                <path d="M218.766152,75.6728339 L273.96807,75.6728339 C278.105286,75.6728339 281.950719,77.8040004 284.143656,81.3122175 L330.71786,155.820694 C334.230731,161.440515 332.522711,168.844025 326.90289,172.356897 C324.99557,173.549135 322.791562,174.18131 320.542273,174.18131 L265.340355,174.18131 C261.203139,174.18131 257.357706,172.050144 255.164769,168.541927 L208.590565,94.0334502 C205.077694,88.413629 206.785714,81.0101188 212.405535,77.4972474 C214.312855,76.3050088 216.516863,75.6728339 218.766152,75.6728339 Z" id="Rectangle-Copy-5" fill-opacity="0.712692482" fill="#FF0000"></path>
                <path d="M280.753534,115.934721 C279.824672,115.059129 278.342691,114.36954 276.886899,114.135518 C274.247467,113.710273 264.79559,113.710273 264.79559,113.710273 C264.79559,113.710273 255.343769,113.710273 253.268858,114.135518 C252.12379,114.369577 251.557318,115.059129 251.790936,115.934721 C252.21287,117.521782 254.410966,120.833038 254.410966,120.833038 C254.410966,120.833038 256.609062,124.144293 258.294191,125.731354 C259.223053,126.606946 260.685963,127.267805 262.141755,127.501827 C264.781243,127.927072 274.233064,127.927072 274.233064,127.927072 C274.233064,127.927072 283.684885,127.927072 285.759796,127.501827 C286.904888,127.267805 287.490408,126.606946 287.25679,125.731354 C286.834855,124.144293 284.636759,120.833038 284.636759,120.833038 C284.636759,120.833038 282.438663,117.521782 280.753534,115.934721 Z M268.428273,123.839409 L264.436861,117.826666 L274.332508,120.833112 L268.428273,123.839409 Z" id="Shape" fill="#FFFFFF" fill-rule="nonzero"></path>
                <g id="Group-7" transform="translate(264.398517, 56.150208)">
                    <path d="M3.83899961,4.87318725 L59.0409175,4.87318725 C63.1781341,4.87318725 67.0235667,7.0043538 69.216504,10.5125709 L115.790708,85.0210473 C119.303579,90.6408685 117.595559,98.0443787 111.975738,101.55725 C110.068418,102.749489 107.86441,103.381664 105.615121,103.381664 L50.4132032,103.381664 C46.2759867,103.381664 42.4305541,101.250497 40.2376168,97.74228 L-6.33658683,23.2338036 C-9.84945825,17.6139824 -8.14143797,10.2104722 -2.52161676,6.69760081 C-0.614297396,5.50536222 1.58971084,4.87318725 3.83899961,4.87318725 Z" id="Rectangle-Copy-2" fill="#FEFEFE" opacity="0.345191592"></path>
                    <path d="M5.6306323,0.379956488 L60.8325502,0.379956488 C64.9697668,0.379956488 68.8151994,2.51112305 71.0081367,6.01934012 L117.58234,80.5278165 C121.095212,86.1476377 119.387191,93.5511479 113.76737,97.0640193 C111.860051,98.2562579 109.656043,98.8884329 107.406754,98.8884329 L52.2048359,98.8884329 C48.0676193,98.8884329 44.2221868,96.7572663 42.0292495,93.2490492 L-4.54495414,18.7405729 C-8.05782556,13.1207516 -6.34980529,5.71724147 -0.729984076,2.20437005 C1.17733529,1.01213147 3.38134352,0.379956488 5.6306323,0.379956488 Z" id="Rectangle" fill="#FEFEFE" opacity="0.871372768"></path>
                    <g id="Group-3" transform="translate(8.995961, 8.453703)">
                        <path d="M3.47344293,6.19866357 L55.2453654,6.19866357 C56.7329369,6.19866357 58.096267,7.02846018 58.7796039,8.3497927 L62.4745936,15.4945992 C63.4840362,17.4465052 62.7200187,19.8471527 60.7681127,20.8565953 C60.2031562,21.1487668 59.5763896,21.3012436 58.940355,21.3012436 L7.16843255,21.3012436 C5.68086106,21.3012436 4.31753094,20.471447 3.63419403,19.1501145 L-0.0607955914,12.005308 C-1.07023826,10.0534019 -0.306220751,7.65275449 1.64568529,6.64331182 C2.21064174,6.3511404 2.8374084,6.19866357 3.47344293,6.19866357 Z" id="Rectangle-Copy-4" fill="#000000" opacity="0.0455031622"></path>
                        <path d="M2.69835466,0.572320589 L56.64458,0.572320589 C57.7571028,0.572320589 58.7782725,1.18798354 59.2976273,2.17184209 L62.5644602,8.36048561 C63.3379231,9.82572317 62.777129,11.6405485 61.3118914,12.4140114 C60.8802409,12.6418691 60.3995126,12.7609641 59.9114129,12.7609641 L5.96518756,12.7609641 C4.85266476,12.7609641 3.83149502,12.1453012 3.31214027,11.1614426 L0.0453073646,4.97279909 C-0.728155554,3.50756153 -0.167361402,1.69273621 1.29787616,0.91927329 C1.72952667,0.691415592 2.21025499,0.572320589 2.69835466,0.572320589 Z" id="Rectangle-Copy" fill="#626262"></path>
                        <path d="M11.0141682,6.66664235 L20.0417328,6.66664235 C20.7793322,6.66664235 21.4570592,7.07262103 21.8050935,7.72294792 L21.9813955,8.05238086 C22.2267438,8.51083169 22.05399,9.08137359 21.5955392,9.32672186 C21.4588851,9.39985475 21.3062896,9.43811937 21.1512968,9.43811937 L12.1237322,9.43811937 C11.3861328,9.43811937 10.7084058,9.03214069 10.3603716,8.3818138 L10.1840695,8.05238086 C9.93872127,7.59393003 10.111475,7.02338813 10.5699259,6.77803986 C10.7065799,6.70490697 10.8591755,6.66664235 11.0141682,6.66664235 Z" id="Rectangle-Copy-6" fill="#FFFFFF"></path>
                        <path d="M10.3791185,1.90024207 L31.6497804,1.90024207 C32.4685873,1.90024207 33.2046909,2.39934296 33.507748,3.1600013 L33.5579399,3.28598058 C33.7646819,3.80489262 33.511618,4.39315142 32.992706,4.59989337 C32.8736062,4.6473444 32.7465709,4.67171909 32.6183665,4.67171909 L11.3477047,4.67171909 C10.5288978,4.67171909 9.7927942,4.17261819 9.48973708,3.41195986 L9.43954514,3.28598058 C9.23280319,2.76706853 9.48586705,2.17880974 10.0047791,1.97206779 C10.1238788,1.92461676 10.2509142,1.90024207 10.3791185,1.90024207 Z" id="Rectangle-Copy-13" fill="#FFFFFF"></path>
                    </g>
                </g>
            </g>
        </g>
    </g>
</svg>